# xmcd
#
# Track frame offsets: 
#        150
#        10875
#        25168
#        43074
#        63594
#        79074
#        98020
#        116335
#
# Disc length: 1849 seconds
#
# Revision: 0
# Processed by: cddbd v1.5.2PL0 Copyright (c) Steve Scherf et al.
# Submitted via: ExactAudioCopy v0.99pb4
#
DISCID=5a073708
DTITLE=Various Artist - Paramount Blues Festival 2009
DYEAR=2009
DGENRE=Blues
TTITLE0=Michael Lee Ammons and the Water Street Hot Shots - West Jackson
TTITLE0=port Stomp
TTITLE1=Hounds Tooth - All Over You
TTITLE2=Perry Weber and The DeVilles - Do Your Duty, Judy
TTITLE3=Fruteland Jackson - My Baby Left Me All Alone in E Minor
TTITLE4=Alex Wilson Band - My Life With You
TTITLE5=Diunna Greenleaf and Blue Mercy - Love Treasure
TTITLE6=Nation Sack - Come and Gone
TTITLE7=Zac Harmon - Hattie Mae
EXTD=
EXTT0=
EXTT1=
EXTT2=
EXTT3=
EXTT4=
EXTT5=
EXTT6=
EXTT7=
PLAYORDER=
